<svg width="22" height="21" viewBox="0 0 22 21" fill="none" xmlns="http://www.w3.org/2000/svg">
<path d="M20.9387 5.08159H14.9211" stroke="#EB5757" stroke-width="1.5" stroke-miterlimit="10" stroke-linecap="round" stroke-linejoin="round"/>
<path d="M4.89182 5.08159H0.880127" stroke="#EB5757" stroke-width="1.5" stroke-miterlimit="10" stroke-linecap="round" stroke-linejoin="round"/>
<path d="M8.90354 8.52445C9.36451 8.52445 9.82097 8.43541 10.2468 8.2624C10.6727 8.08939 11.0597 7.83581 11.3857 7.51613C11.7116 7.19645 11.9702 6.81694 12.1466 6.39926C12.323 5.98159 12.4138 5.53392 12.4138 5.08183C12.4138 4.62974 12.323 4.18207 12.1466 3.76439C11.9702 3.34672 11.7116 2.9672 11.3857 2.64753C11.0597 2.32785 10.6727 2.07427 10.2468 1.90126C9.82097 1.72825 9.36451 1.63921 8.90354 1.63921C7.97257 1.63921 7.07973 2.00191 6.42143 2.64753C5.76314 3.29314 5.39331 4.16879 5.39331 5.08183C5.39331 5.99487 5.76314 6.87051 6.42143 7.51613C7.07973 8.16175 7.97257 8.52445 8.90354 8.52445V8.52445Z" stroke="#EB5757" stroke-width="1.5" stroke-miterlimit="10" stroke-linecap="round" stroke-linejoin="round"/>
<path d="M20.9387 15.9014H16.927" stroke="#EB5757" stroke-width="1.5" stroke-miterlimit="10" stroke-linecap="round" stroke-linejoin="round"/>
<path d="M6.89767 15.9015H0.880127" stroke="#EB5757" stroke-width="1.5" stroke-miterlimit="10" stroke-linecap="round" stroke-linejoin="round"/>
<path d="M12.9153 19.3443C13.8462 19.3443 14.7391 18.9816 15.3974 18.336C16.0557 17.6903 16.4255 16.8147 16.4255 15.9017C16.4255 14.9886 16.0557 14.113 15.3974 13.4674C14.7391 12.8217 13.8462 12.459 12.9153 12.459C11.9843 12.459 11.0914 12.8217 10.4332 13.4674C9.77486 14.113 9.40503 14.9886 9.40503 15.9017C9.40503 16.8147 9.77486 17.6903 10.4332 18.336C11.0914 18.9816 11.9843 19.3443 12.9153 19.3443V19.3443Z" stroke="#EB5757" stroke-width="1.5" stroke-miterlimit="10" stroke-linecap="round" stroke-linejoin="round"/>
</svg>
