<svg width="27" height="27" viewBox="0 0 27 27" fill="none" xmlns="http://www.w3.org/2000/svg">
<path d="M24.3369 7.47773C23.9835 6.65939 23.4739 5.91782 22.8366 5.29453C22.1989 4.66938 21.447 4.17258 20.6218 3.83115C19.7661 3.4757 18.8483 3.29377 17.9218 3.2959C16.6219 3.2959 15.3536 3.65185 14.2515 4.32422C13.9878 4.48506 13.7373 4.66172 13.5 4.8542C13.2627 4.66172 13.0122 4.48506 12.7485 4.32422C11.6464 3.65185 10.3781 3.2959 9.07822 3.2959C8.14219 3.2959 7.23516 3.47519 6.37822 3.83115C5.55029 4.17392 4.8041 4.66699 4.16338 5.29453C3.52528 5.91712 3.01556 6.65886 2.66309 7.47773C2.29658 8.32939 2.10938 9.23378 2.10938 10.1645C2.10938 11.0426 2.28867 11.9575 2.64463 12.8883C2.94258 13.6661 3.36973 14.4729 3.91553 15.2877C4.78037 16.577 5.96953 17.9218 7.44609 19.2849C9.89297 21.5446 12.3161 23.1055 12.4189 23.1688L13.0438 23.5696C13.3207 23.7463 13.6767 23.7463 13.9535 23.5696L14.5784 23.1688C14.6813 23.1029 17.1018 21.5446 19.5513 19.2849C21.0278 17.9218 22.217 16.577 23.0818 15.2877C23.6276 14.4729 24.0574 13.6661 24.3527 12.8883C24.7087 11.9575 24.888 11.0426 24.888 10.1645C24.8906 9.23378 24.7034 8.32939 24.3369 7.47773V7.47773Z" fill="black"/>
</svg>
