<svg width="20" height="17" viewBox="0 0 20 17" fill="none" xmlns="http://www.w3.org/2000/svg">
<path d="M19 2.25H1C0.59 2.25 0.25 1.91 0.25 1.5C0.25 1.09 0.59 0.75 1 0.75H19C19.41 0.75 19.75 1.09 19.75 1.5C19.75 1.91 19.41 2.25 19 2.25Z" fill="#4F4F4F"/>
<path d="M19 9.5H1C0.59 9.5 0.25 9.16 0.25 8.75C0.25 8.34 0.59 8 1 8H19C19.41 8 19.75 8.34 19.75 8.75C19.75 9.16 19.41 9.5 19 9.5Z" fill="#4F4F4F"/>
<path d="M19 16.5H1C0.59 16.5 0.25 16.16 0.25 15.75C0.25 15.34 0.59 15 1 15H19C19.41 15 19.75 15.34 19.75 15.75C19.75 16.16 19.41 16.5 19 16.5Z" fill="#4F4F4F"/>
</svg>
