<svg width="22" height="23" viewBox="0 0 22 23" fill="none" xmlns="http://www.w3.org/2000/svg">
<path d="M10.5746 21.082C4.90807 21.082 0.294617 16.5574 0.294617 11C0.294617 5.44262 4.90807 0.91803 10.5746 0.91803C16.2411 0.91803 20.8546 5.44262 20.8546 11C20.8546 16.5574 16.2411 21.082 10.5746 21.082ZM10.5746 2.39344C5.73046 2.39344 1.799 6.25901 1.799 11C1.799 15.741 5.73046 19.6066 10.5746 19.6066C15.4187 19.6066 19.3502 15.741 19.3502 11C19.3502 6.25901 15.4187 2.39344 10.5746 2.39344Z" fill="#828282"/>
<path d="M21.1053 22.0657C20.9147 22.0657 20.7242 21.9969 20.5737 21.8493L18.5679 19.8821C18.428 19.7433 18.3495 19.556 18.3495 19.3608C18.3495 19.1656 18.428 18.9783 18.5679 18.8395C18.8587 18.5542 19.3401 18.5542 19.631 18.8395L21.6368 20.8067C21.9277 21.0919 21.9277 21.5641 21.6368 21.8493C21.4864 21.9969 21.2958 22.0657 21.1053 22.0657Z" fill="#828282"/>
</svg>
